<?xml version="1.0" encoding="utf-8"?>
<!-- Generator: Adobe Illustrator 24.0.2, SVG Export Plug-In . SVG Version: 6.00 Build 0)  -->
<svg version="1.1" id="레이어_1" xmlns="http://www.w3.org/2000/svg" xmlns:xlink="http://www.w3.org/1999/xlink" x="0px"
	 y="0px" viewBox="0 0 50 50" style="enable-background:new 0 0 50 50;" xml:space="preserve">
<style type="text/css">
	.st0{opacity:0.8;}
	.st1{fill:#231815;}
</style>
<title>icon_contery</title>
<g class="st0">
	<circle class="st1" cx="25" cy="25" r="6.6"/>
	<path class="st1" d="M35.1,13.8c-0.6,0-1,0.5-1,1c0,0.6,0.5,1,1,1s1-0.5,1-1C36.1,14.3,35.6,13.8,35.1,13.8z"/>
	<path class="st1" d="M34,9H16c-3.9,0-7,3.1-7,7v18c0,3.9,3.1,7,7,7h18c3.9,0,7-3.1,7-7V16C41,12.1,37.9,9,34,9L34,9z M25,33.8
		c-4.8,0-8.8-3.9-8.8-8.8s3.9-8.8,8.8-8.8s8.8,3.9,8.8,8.8S29.8,33.8,25,33.8z M35.1,18c-1.8,0-3.2-1.4-3.2-3.2s1.4-3.2,3.2-3.2
		c1.8,0,3.2,1.4,3.2,3.2S36.8,18,35.1,18L35.1,18z"/>
</g>
</svg>
