<?xml version="1.0" encoding="utf-8"?>
<!-- Generator: Adobe Illustrator 24.0.2, SVG Export Plug-In . SVG Version: 6.00 Build 0)  -->
<svg version="1.1" id="Layer_1" xmlns="http://www.w3.org/2000/svg" xmlns:xlink="http://www.w3.org/1999/xlink" x="0px" y="0px"
	 viewBox="0 0 500 500" style="enable-background:new 0 0 500 500;" xml:space="preserve">
<style type="text/css">
	.st0{opacity:0.8;}
	.st1{fill:#231815;}
</style>
<g class="st0">
	<path class="st1" d="M456.9,135.9c-21.4-36.6-50.4-65.6-87-87c-36.6-21.4-76.6-32.1-120-32.1s-83.3,10.7-120,32.1
		c-36.6,21.4-65.6,50.3-87,86.9C21.7,172.5,11,212.5,11,255.9c0,52.1,15.2,98.9,45.6,140.5c30.4,41.6,69.6,70.4,117.8,86.3
		c5.6,1,9.8,0.3,12.4-2.2c2.7-2.5,4.1-5.6,4.1-9.3c0-0.6-0.1-6.2-0.1-16.8c-0.1-10.6-0.2-19.8-0.2-27.7l-7.1,1.3
		c-4.6,0.8-10.3,1.2-17.3,1.1c-7-0.1-14.2-0.8-21.6-2.2c-7.5-1.3-14.4-4.4-20.8-9.3c-6.4-4.9-11-11.3-13.7-19.1l-3.1-7.2
		c-2.1-4.8-5.3-10-9.8-15.9c-4-5.2-8.1-8.9-12.1-11.1c-1.1-0.6-2.2-1.2-3.2-2l-0.4-0.3c-1.4-1-2.8-2.3-4-3.8
		c-1.3-1.4-2.2-2.9-2.8-4.3c-0.6-1.5-0.1-2.6,1.6-3.6c0.9-0.5,2.3-0.9,4.2-1.1c2.5-0.3,5-0.2,7.5,0.1l3.6,0.5
		c4.1,0.8,9.3,3.3,15.4,7.5c6.1,4.2,11.2,9.5,15.1,16.2c4.8,8.5,10.5,15,17.3,19.5c6.8,4.5,13.5,6.7,20.4,6.7
		c6.8,0,12.8-0.5,17.7-1.5c5-1,9.6-2.6,14-4.7c1.9-13.9,7-24.6,15.2-32.1c-11.8-1.3-22.4-3.1-31.9-5.6c-9.4-2.5-19.2-6.5-29.2-12.1
		c-10.1-5.6-18.4-12.5-25.1-20.8c-6.6-8.3-12.1-19.2-16.3-32.7c-4.3-13.5-6.4-29-6.4-46.7c0-25.1,8.2-46.5,24.6-64.1
		c-7.7-18.9-7-40,2.2-63.5c6-1.9,14.9-0.5,26.8,4.2c11.8,4.7,20.5,8.7,26,12c5.5,3.3,9.9,6.1,13.2,8.4c19.3-5.4,39.2-8.1,59.8-8.1
		s40.4,2.7,59.7,8.1l11.8-7.5c8.1-5,17.6-9.5,28.6-13.7c11-4.1,19.4-5.3,25.2-3.4c9.3,23.4,10.2,44.6,2.5,63.5
		c16.4,17.6,24.6,39,24.6,64.1c0,17.6-2.1,33.2-6.4,46.8c-4.3,13.6-9.7,24.5-16.5,32.7c-6.8,8.2-15.1,15.1-25.2,20.7
		c-10,5.6-19.8,9.6-29.2,12.1c-9.4,2.5-20.1,4.4-31.9,5.6c10.8,9.3,16.2,24.1,16.2,44.2v65.7c0,3.7,1.3,6.9,3.9,9.3
		c2.6,2.5,6.7,3.2,12.3,2.2c48.1-16,87.4-44.8,117.8-86.4c30.4-41.6,45.6-88.4,45.6-140.5C489,212.5,478.3,172.5,456.9,135.9z"/>
	<path class="st1" d="M178.9,484.1c-1.5,0-3.1-0.2-4.8-0.5l-0.1,0c-48.1-16-87.9-45.1-118.3-86.7C25.4,355.4,10,307.9,10,255.9
		c0-43.3,10.8-83.9,32.2-120.5c21.4-36.6,50.7-66,87.3-87.3c36.6-21.4,77.1-32.2,120.5-32.2c43.3,0,83.9,10.8,120.5,32.2
		c36.6,21.4,66,50.8,87.3,87.3l0,0C479.1,172,490,212.5,490,255.8c0,52-15.4,99.5-45.8,141.1c-30.4,41.6-70.1,70.8-118.3,86.7
		l-0.1,0c-5.9,1.1-10.3,0.3-13.2-2.5c-2.8-2.7-4.2-6.1-4.2-10.1v-65.6c0-19.7-5.3-34.3-15.8-43.4l-1.8-1.5l2.4-0.3
		c11.8-1.2,22.5-3.1,31.7-5.6c9.3-2.4,19-6.5,29-12c9.9-5.5,18.3-12.4,24.9-20.5c6.6-8,12.1-18.9,16.3-32.3
		c4.2-13.4,6.3-29.1,6.3-46.5c0-24.7-8.2-46.1-24.3-63.4l-0.5-0.5l0.3-0.6c7.5-18.4,6.7-39.3-2.3-62.3c-5.6-1.6-13.7-0.4-24.1,3.5
		c-11,4.1-20.5,8.7-28.5,13.6l-12.2,7.7l-0.4-0.1c-19.1-5.3-39.1-8.1-59.5-8.1s-40.3,2.7-59.5,8.1l-0.5,0.1l-0.4-0.3
		c-3.5-2.4-7.9-5.2-13.2-8.4c-5.5-3.3-14.2-7.3-25.8-11.9c-11.3-4.4-19.9-5.9-25.6-4.3c-8.8,22.9-9.5,43.8-2,62.2l0.3,0.6l-0.4,0.5
		c-16.1,17.4-24.3,38.7-24.3,63.4c0,17.4,2.1,33,6.3,46.4c4.2,13.3,9.6,24.1,16.1,32.3c6.5,8.2,14.9,15.1,24.8,20.6
		c9.9,5.5,19.7,9.6,29,12c9.3,2.5,20,4.3,31.7,5.6l2.3,0.2l-1.7,1.5c-8.1,7.3-13.1,17.8-14.9,31.4l-0.1,0.5l-0.5,0.2
		c-4.4,2.1-9.2,3.7-14.2,4.7c-5.1,1-11.1,1.6-17.9,1.6c-7,0-14.1-2.3-20.9-6.9c-6.9-4.5-12.8-11.2-17.6-19.8
		c-3.8-6.4-8.8-11.8-14.8-15.8c-6-4.1-11-6.5-15-7.3l-3.5-0.5c-2.5-0.4-5-0.4-7.3-0.1c-1.7,0.2-3,0.5-3.8,1
		c-1.6,0.9-1.4,1.6-1.1,2.3c0.6,1.4,1.5,2.7,2.6,4.1c1.2,1.4,2.5,2.6,3.9,3.6l0.4,0.3c0.9,0.6,1.9,1.3,3.1,1.9
		c4.2,2.3,8.4,6.1,12.5,11.4c4.6,6,7.8,11.2,9.9,16.1l3.2,7.2c2.6,7.7,7.1,13.9,13.3,18.6c6.3,4.8,13.1,7.8,20.4,9.1
		c7.4,1.3,14.6,2.1,21.5,2.2c6.9,0.1,12.6-0.3,17.1-1.1l8.4-1.5v1.2c0,7.8,0.1,17.1,0.2,27.7c0.1,5.5,0.1,9.7,0.1,12.5
		c0,2.6,0,4,0,4.3c0,4-1.5,7.4-4.4,10.1C185.4,483.2,182.6,484.1,178.9,484.1z M174.6,481.7c5.2,1,9.1,0.3,11.5-1.9
		c2.5-2.3,3.7-5.1,3.7-8.6c0-0.3,0-1.7,0-4.3c0-2.8-0.1-7-0.1-12.5c-0.1-10-0.2-18.9-0.2-26.5l-5.9,1c-4.6,0.8-10.4,1.2-17.5,1.1
		c-7-0.1-14.3-0.8-21.8-2.2c-7.6-1.4-14.8-4.6-21.3-9.5c-6.5-5-11.3-11.5-14-19.6l-3.1-7.1c-2-4.6-5.3-9.9-9.7-15.6
		c-3.9-5.1-7.9-8.7-11.8-10.9c-1.2-0.6-2.3-1.3-3.3-2l-0.4-0.3c-1.5-1.1-2.9-2.4-4.2-3.9c-1.3-1.5-2.3-3-3-4.6
		c-0.5-1.1-0.9-3.3,2-4.9c1.1-0.6,2.6-1,4.6-1.3c2.5-0.3,5.1-0.3,7.8,0.1l3.6,0.5c4.3,0.9,9.6,3.4,15.8,7.6
		c6.2,4.2,11.4,9.8,15.4,16.5c4.7,8.3,10.4,14.8,17,19.1c6.5,4.3,13.2,6.5,19.8,6.5c6.7,0,12.6-0.5,17.5-1.5c4.7-1,9.2-2.5,13.3-4.4
		c1.8-12.9,6.5-23.2,13.9-30.6c-11-1.3-21-3.1-29.8-5.4c-9.5-2.5-19.4-6.6-29.5-12.2c-10.1-5.6-18.7-12.7-25.4-21.1
		c-6.7-8.4-12.3-19.5-16.5-33c-4.3-13.5-6.4-29.3-6.4-47c0-25,8.2-46.7,24.4-64.3c-7.5-18.9-6.7-40.3,2.4-63.6l0.2-0.5l0.5-0.2
		c6.3-2,15.3-0.6,27.4,4.2c11.7,4.6,20.5,8.7,26.1,12.1c5.1,3.1,9.4,5.8,12.9,8.2c19.2-5.3,39.2-8,59.6-8c20.3,0,40.4,2.7,59.6,8
		l11.4-7.2c8-5,17.7-9.6,28.8-13.8c11.2-4.2,19.9-5.4,25.9-3.4l0.5,0.2l0.2,0.4c9.3,23.4,10.2,44.8,2.7,63.6
		c16.2,17.6,24.4,39.3,24.4,64.3c0,17.6-2.2,33.5-6.4,47.1c-4.3,13.7-9.9,24.8-16.7,33c-6.8,8.3-15.4,15.3-25.5,20.9
		c-10.1,5.6-20,9.7-29.5,12.2c-8.8,2.3-18.8,4.1-29.8,5.4c9.9,9.6,14.8,24.1,14.8,43.4v65.7c0,3.4,1.2,6.3,3.6,8.6
		c2.3,2.2,6.1,2.9,11.3,1.9c47.7-15.9,87.1-44.8,117.2-86c30.1-41.2,45.4-88.3,45.4-139.9c0-43-10.8-83.1-31.9-119.4l0,0
		c-21.2-36.3-50.3-65.4-86.6-86.6C333.1,28.6,293,17.9,250,17.9c-43,0-83.1,10.7-119.4,31.9C94.3,71,65.2,100.1,44,136.4
		c-21.2,36.3-31.9,76.5-31.9,119.4c0,51.6,15.3,98.6,45.4,139.9C87.6,436.9,127,465.9,174.6,481.7z"/>
</g>
</svg>
