<svg id="레이어_1" data-name="레이어 1" xmlns="http://www.w3.org/2000/svg" viewBox="0 0 50 50"><defs><style>.cls-1{opacity:0.8;}.cls-2{fill:#231815;}</style></defs><title>icon_email</title><g class="cls-1"><path class="cls-2" d="M21,23.1a2,2,0,0,1,.62-.38,2.76,2.76,0,0,1,1.07-.19,2.64,2.64,0,0,1,1.4.37A2.42,2.42,0,0,1,25,24,2.72,2.72,0,0,1,26,22.91a2.54,2.54,0,0,1,1.39-.38,2.73,2.73,0,0,1,1.07.19,2,2,0,0,1,.61.38l11.43-7.58a6,6,0,0,0-5.09-2.8H14.64a6,6,0,0,0-5.09,2.8Z"/><path class="cls-2" d="M29.79,25.33a5.15,5.15,0,0,1-.3,1.3,7.1,7.1,0,0,1-.92,1.73,10.52,10.52,0,0,1-1.5,1.69A12.5,12.5,0,0,1,25,31.56,10.78,10.78,0,0,1,23,30.1a10.29,10.29,0,0,1-1.51-1.71,8.11,8.11,0,0,1-.94-1.75,4.82,4.82,0,0,1-.3-1.31L8.7,17.71a6,6,0,0,0-.09,1.05V31.24a6,6,0,0,0,6,6H35.36a6,6,0,0,0,6-6V18.76a6,6,0,0,0-.09-1.05Z"/></g></svg>