<svg id="레이어_1" data-name="레이어 1" xmlns="http://www.w3.org/2000/svg" viewBox="0 0 50 50"><defs><style>.cls-1{opacity:0.8;}.cls-2{fill:#231815;}</style></defs><title>icon_jhae</title><g class="cls-1"><path class="cls-2" d="M24.32,32.23c.09.16.31.24.68.24s.59-.08.68-.24c.24-.46-.18-1.57-.68-2.5-.5.93-.92,2-.68,2.5"/><path class="cls-2" d="M26.61,32.72a1.65,1.65,0,0,1-1.61.8,1.64,1.64,0,0,1-1.61-.8c-.67-1.25.63-3.48,1.08-4.18v-7.1A9.53,9.53,0,0,0,25,20.38a9.39,9.39,0,0,0,.53,1.05v7.11c.45.7,1.75,2.93,1.08,4.18m11.62-2a.71.71,0,0,0,0-.14h0a.52.52,0,0,0-.27-.36c-.11-.05-10-5-12-10.39a6.84,6.84,0,1,0-1.8,0c-2.06,5.34-11.93,10.33-12,10.38a.53.53,0,0,0-.28.41h0v.1h0c.3,5.09,5.34,7.87,9,9.9,1.81,1,3.68,2,3.68,2.77a.53.53,0,0,0,.53.53h0a.53.53,0,0,0,.53-.53c0-.73,1.87-1.76,3.67-2.75,3.68-2,8.73-4.82,9-9.92v0"/></g></svg>