<?xml version="1.0" encoding="UTF-8"?>
<svg id="_레이어_1" data-name="레이어_1" xmlns="http://www.w3.org/2000/svg" xmlns:xlink="http://www.w3.org/1999/xlink" viewBox="0 0 240 230">
  <defs>
    <style>
      .cls-1 {
        fill: url(#_무제_그라디언트_16-3);
      }

      .cls-2 {
        fill: url(#_무제_그라디언트_16-4);
      }

      .cls-3 {
        fill: #4d4d4d;
        font-family: PretendardVariable-SemiBold, 'Pretendard Variable';
        font-size: 12px;
        font-variation-settings: 'wght' 600;
        font-weight: 600;
        letter-spacing: -.12em;
      }

      .cls-4 {
        fill: url(#_무제_그라디언트_16-2);
      }

      .cls-5 {
        fill: none;
        stroke: #c4b9b6;
        stroke-width: 2px;
      }

      .cls-6 {
        fill: url(#_무제_그라디언트_16-6);
      }

      .cls-7 {
        fill: url(#_무제_그라디언트_16);
      }

      .cls-8 {
        fill: url(#_무제_그라디언트_16-5);
      }
    </style>
    <linearGradient id="_무제_그라디언트_16" data-name="무제 그라디언트 16" x1="225.81" y1="140.13" x2="240.11" y2="140.13" gradientTransform="translate(-29.15 58.8)" gradientUnits="userSpaceOnUse">
      <stop offset="0" stop-color="#ff7bac"/>
      <stop offset="1" stop-color="#fbb03b"/>
    </linearGradient>
    <linearGradient id="_무제_그라디언트_16-2" data-name="무제 그라디언트 16" x1="42.78" y1="114.96" x2="191.62" y2="114.96" gradientTransform="translate(-36.44 55.21) rotate(-23.11)" xlink:href="#_무제_그라디언트_16"/>
    <linearGradient id="_무제_그라디언트_16-3" data-name="무제 그라디언트 16" x1="97.16" y1="117.8" x2="173.35" y2="117.8" gradientTransform="matrix(1,0,0,1,0,0)" xlink:href="#_무제_그라디언트_16"/>
    <linearGradient id="_무제_그라디언트_16-4" data-name="무제 그라디언트 16" x1="97.16" y1="117.8" x2="173.35" y2="117.8" gradientTransform="matrix(1,0,0,1,0,0)" xlink:href="#_무제_그라디언트_16"/>
    <linearGradient id="_무제_그라디언트_16-5" data-name="무제 그라디언트 16" x1="97.16" y1="117.8" x2="173.35" y2="117.8" gradientTransform="matrix(1,0,0,1,0,0)" xlink:href="#_무제_그라디언트_16"/>
    <linearGradient id="_무제_그라디언트_16-6" data-name="무제 그라디언트 16" x1="97.16" y1="117.8" x2="173.35" y2="117.8" gradientTransform="matrix(1,0,0,1,0,0)" xlink:href="#_무제_그라디언트_16"/>
  </defs>
  <text class="cls-3" transform="translate(102.36 28.24)"><tspan x="0" y="0">긍정적</tspan></text>
  <g>
    <text class="cls-3" transform="translate(10.65 118.89)"><tspan x="0" y="0">효과</tspan></text>
    <text class="cls-3" transform="translate(201.12 118.89)"><tspan x="0" y="0">세밀함</tspan></text>
  </g>
  <text class="cls-3" transform="translate(106.82 209.66)"><tspan x="0" y="0">표현</tspan></text>
  <g>
    <text class="cls-3" transform="translate(177.68 57.28)"><tspan x="0" y="0">섬세함</tspan></text>
    <text class="cls-3" transform="translate(27.03 57.28)"><tspan x="0" y="0">감성적</tspan></text>
    <text class="cls-3" transform="translate(35.97 180.49)"><tspan x="0" y="0">직감</tspan></text>
  </g>
  <line class="cls-5" x1="172.51" y1="167.63" x2="200.01" y2="195.14"/>
  <rect class="cls-7" x="196.67" y="191.79" width="14.29" height="14.29" rx="7.15" ry="7.15" transform="translate(200.37 -85.85) rotate(45)"/>
  <path class="cls-4" d="M106.49,39.01l-37.93,16.19c-5.85,2.49-10.46,7.21-12.83,13.11l-15.37,38.27c-2.37,5.9-2.3,12.49.2,18.34l16.19,37.93c2.49,5.85,7.21,10.46,13.11,12.83l38.27,15.37c5.9,2.37,12.49,2.3,18.34-.2l37.93-16.19c5.85-2.49,10.46-7.21,12.83-13.11l15.37-38.27c2.37-5.9,2.3-12.49-.2-18.34l-16.19-37.93c-2.49-5.85-7.21-10.46-13.11-12.83l-38.27-15.37c-5.9-2.37-12.49-2.3-18.34.2ZM188,123.34l-14.06,35.01c-2.37,5.9-6.98,10.61-12.83,13.11l-34.7,14.81c-5.85,2.49-12.44,2.57-18.34.2l-35.01-14.06c-5.9-2.37-10.61-6.98-13.11-12.83l-14.81-34.7c-2.49-5.85-2.57-12.44-.2-18.34l14.06-35.01c2.37-5.9,6.98-10.61,12.83-13.11l34.7-14.81c5.85-2.49,12.44-2.57,18.34-.2l35.01,14.06c5.9,2.37,10.61,6.98,13.11,12.83l14.81,34.7c2.49,5.85,2.57,12.44.2,18.34Z"/>
  <g>
    <path class="cls-1" d="M105.62,128.18l-.1.13h-8.27l-.1-.13c.53-.17.96-.46,1.27-.88.32-.41.54-1.02.67-1.83.13-.81.19-1.87.19-3.18v-8.98c0-1.32-.06-2.38-.19-3.18-.13-.81-.35-1.42-.67-1.83-.32-.41-.74-.71-1.27-.88l.1-.13h8.27l.1.13c-.42.17-.75.46-.99.88-.23.41-.4,1.02-.51,1.83-.11.81-.16,1.87-.16,3.18v8.98c0,1.32.05,2.38.16,3.18.11.81.28,1.42.51,1.83.23.41.56.71.99.88ZM101.55,117.8v-.48h11.62v.48h-11.62ZM117.02,128.18l-.1.13h-8.28l-.09-.13c.42-.17.75-.46.99-.88.23-.41.4-1.02.51-1.83.11-.81.16-1.87.16-3.18v-8.98c0-1.32-.05-2.38-.16-3.18-.11-.81-.28-1.42-.51-1.83-.23-.41-.56-.71-.99-.88l.09-.13h8.28l.1.13c-.53.17-.96.46-1.27.88-.32.41-.55,1.02-.68,1.83-.14.81-.21,1.87-.21,3.18v8.98c0,1.32.07,2.38.21,3.18.14.81.37,1.42.68,1.83.32.41.74.71,1.27.88Z"/>
    <path class="cls-2" d="M126.47,106.82c1.83,0,3.41.47,4.74,1.42,1.34.94,2.37,2.25,3.1,3.93.73,1.68,1.1,3.61,1.1,5.79s-.37,3.99-1.1,5.62c-.73,1.62-1.77,2.9-3.1,3.82-1.34.92-2.92,1.38-4.74,1.38s-3.37-.47-4.71-1.42-2.38-2.25-3.12-3.93c-.74-1.68-1.11-3.61-1.11-5.79s.37-3.99,1.11-5.62c.74-1.62,1.78-2.9,3.12-3.82,1.34-.92,2.91-1.38,4.71-1.38ZM126.34,107.3c-.74,0-1.36.36-1.86,1.08-.5.72-.88,1.83-1.15,3.33-.27,1.5-.4,3.42-.4,5.78s.15,4.33.45,5.94c.3,1.6.72,2.8,1.27,3.6.55.8,1.21,1.19,1.97,1.19s1.36-.35,1.86-1.07c.5-.71.88-1.82,1.13-3.33.25-1.51.38-3.43.38-5.76s-.14-4.33-.43-5.94-.71-2.81-1.26-3.61c-.55-.81-1.21-1.21-1.97-1.21Z"/>
    <path class="cls-8" d="M133.63,107.43l.1-.13h8.47l.1.13c-.74.28-1.16.7-1.24,1.27-.08.57.06,1.49.45,2.74l2.96,9.52,3.56-10.63.41.7-6.02,17.76h-.19l-5.67-17.16c-.32-.98-.61-1.74-.88-2.29-.27-.55-.55-.97-.86-1.24-.31-.28-.71-.5-1.19-.67ZM144.68,107.43l.1-.13h8.43l.09.13c-.76.28-1.19.71-1.27,1.31-.08.59.07,1.5.48,2.71l3.09,9.52,3.06-9.52c.4-1.25.56-2.16.48-2.74-.08-.57-.51-1-1.27-1.27l.1-.13h4.11l.1.13c-.49.17-.89.39-1.19.65-.31.27-.58.67-.83,1.23-.24.55-.54,1.33-.88,2.32l-5.67,17.16h-.19l-5.82-17.16c-.34-1-.64-1.77-.89-2.32-.25-.55-.53-.96-.83-1.23s-.69-.48-1.18-.65Z"/>
    <path class="cls-6" d="M165.52,120.38c0-.81.11-1.51.32-2.1.21-.59.47-1.13.78-1.61s.61-.94.91-1.38c.3-.45.55-.92.75-1.43.2-.51.3-1.09.3-1.75,0-1.12-.3-2-.91-2.64s-1.33-.96-2.18-.96c-.7,0-1.38.23-2.04.68-.66.46-1.2,1.16-1.62,2.12l-.19-.1c.4-1.4,1.17-2.48,2.29-3.25,1.12-.76,2.41-1.15,3.85-1.15,1.06,0,2,.2,2.83.6.83.4,1.49.97,1.99,1.7.5.73.75,1.61.75,2.63s-.3,1.97-.91,2.85c-.61.88-1.48,1.65-2.63,2.31-.87.47-1.6.92-2.2,1.35-.59.44-1.04.92-1.34,1.45s-.47,1.17-.51,1.91h-.25v-1.24ZM168.17,127.88c.47-.5.7-1.08.7-1.73s-.23-1.26-.7-1.73-1.05-.72-1.75-.72c-.66,0-1.23.24-1.7.72s-.72,1.06-.72,1.73.24,1.24.72,1.73c.48.5,1.04.75,1.7.75.7,0,1.28-.25,1.75-.75Z"/>
  </g>
</svg>