<?xml version="1.0" encoding="UTF-8"?>
<svg id="_레이어_1" data-name="레이어_1" xmlns="http://www.w3.org/2000/svg" xmlns:xlink="http://www.w3.org/1999/xlink" viewBox="0 0 240 200">
  <defs>
    <style>
      .cls-1 {
        fill: url(#_무제_그라디언트_16-3);
      }

      .cls-2 {
        fill: url(#_무제_그라디언트_16-4);
      }

      .cls-3 {
        fill: #4d4d4d;
        font-family: PretendardVariable-SemiBold, 'Pretendard Variable';
        font-size: 12px;
        font-variation-settings: 'wght' 600;
        font-weight: 600;
        letter-spacing: -.12em;
      }

      .cls-4 {
        fill: url(#_무제_그라디언트_16-2);
      }

      .cls-5 {
        fill: none;
        stroke: #c4b9b6;
        stroke-width: 2px;
      }

      .cls-6 {
        fill: url(#_무제_그라디언트_16-6);
      }

      .cls-7 {
        fill: url(#_무제_그라디언트_16-7);
      }

      .cls-8 {
        fill: url(#_무제_그라디언트_16);
      }

      .cls-9 {
        fill: url(#_무제_그라디언트_16-5);
      }
    </style>
    <linearGradient id="_무제_그라디언트_16" data-name="무제 그라디언트 16" x1="209.53" y1="-155.99" x2="221.4" y2="-155.99" gradientTransform="translate(-168.01 185.56)" gradientUnits="userSpaceOnUse">
      <stop offset="0" stop-color="#ff7bac"/>
      <stop offset="1" stop-color="#fbb03b"/>
    </linearGradient>
    <linearGradient id="_무제_그라디언트_16-2" data-name="무제 그라디언트 16" x1="123.58" y1="204.82" x2="247.22" y2="204.82" gradientTransform="translate(370.92 214.95) rotate(156.89)" xlink:href="#_무제_그라디언트_16"/>
    <linearGradient id="_무제_그라디언트_16-3" data-name="무제 그라디언트 16" x1="107.67" y1="102.39" x2="167.93" y2="102.39" gradientTransform="matrix(1,0,0,1,0,0)" xlink:href="#_무제_그라디언트_16"/>
    <linearGradient id="_무제_그라디언트_16-4" data-name="무제 그라디언트 16" x1="107.67" y1="102.39" x2="167.93" y2="102.39" gradientTransform="matrix(1,0,0,1,0,0)" xlink:href="#_무제_그라디언트_16"/>
    <linearGradient id="_무제_그라디언트_16-5" data-name="무제 그라디언트 16" x1="107.67" y1="102.39" x2="167.93" y2="102.39" gradientTransform="matrix(1,0,0,1,0,0)" xlink:href="#_무제_그라디언트_16"/>
    <linearGradient id="_무제_그라디언트_16-6" data-name="무제 그라디언트 16" x1="107.67" y1="102.39" x2="167.93" y2="102.39" gradientTransform="matrix(1,0,0,1,0,0)" xlink:href="#_무제_그라디언트_16"/>
    <linearGradient id="_무제_그라디언트_16-7" data-name="무제 그라디언트 16" x1="107.67" y1="102.39" x2="167.93" y2="102.39" gradientTransform="matrix(1,0,0,1,0,0)" xlink:href="#_무제_그라디언트_16"/>
  </defs>
  <text class="cls-3" transform="translate(114.16 24.13)"><tspan x="0" y="0">책</tspan></text>
  <g>
    <text class="cls-3" transform="translate(27.07 103.36)"><tspan x="0" y="0">음악</tspan></text>
    <text class="cls-3" transform="translate(193.63 103.36)"><tspan x="0" y="0">그림</tspan></text>
  </g>
  <text class="cls-3" transform="translate(109.7 183.76)"><tspan x="0" y="0">연출</tspan></text>
  <g>
    <text class="cls-3" transform="translate(176.73 47.2)"><tspan x="0" y="0">글</tspan></text>
    <text class="cls-3" transform="translate(176.73 154.54)"><tspan x="0" y="0">공연</tspan></text>
    <text class="cls-3" transform="translate(43.47 154.54)"><tspan x="0" y="0">제작</tspan></text>
  </g>
  <line class="cls-5" x1="73.45" y1="55.57" x2="50.61" y2="32.73"/>
  <rect class="cls-8" x="41.52" y="23.64" width="11.87" height="11.87" rx="5.94" ry="5.94" transform="translate(60.09 84.03) rotate(-135)"/>
  <path class="cls-4" d="M128.29,162.41l31.51-13.45c4.86-2.07,8.69-5.99,10.66-10.89l12.77-31.79c1.97-4.9,1.91-10.38-.16-15.23l-13.45-31.51c-2.07-4.86-5.99-8.69-10.89-10.66l-31.79-12.77c-4.9-1.97-10.38-1.91-15.23.16l-31.51,13.45c-4.86,2.07-8.69,5.99-10.66,10.89l-12.77,31.79c-1.97,4.9-1.91,10.38.16,15.23l13.45,31.51c2.07,4.86,5.99,8.69,10.89,10.66l31.79,12.77c4.9,1.97,10.38,1.91,15.23-.16ZM61.31,92.45l11.54-28.73c1.94-4.84,5.73-8.71,10.53-10.75l28.47-12.15c4.8-2.05,10.21-2.1,15.05-.16l28.73,11.54c4.84,1.94,8.71,5.73,10.75,10.53l12.15,28.47c2.05,4.8,2.1,10.21.16,15.05l-11.54,28.73c-1.94,4.84-5.73,8.71-10.53,10.75l-28.47,12.15c-4.8,2.05-10.21,2.1-15.05.16l-28.73-11.54c-4.84-1.94-8.71-5.73-10.75-10.53l-12.15-28.47c-2.05-4.8-2.1-10.21-.16-15.05Z"/>
  <g>
    <path class="cls-1" d="M113.33,111.18h-5.58l-.08-.11c.44-.14.79-.38,1.06-.73.26-.34.45-.85.56-1.52.11-.67.16-1.55.16-2.64v-7.46c0-1.09-.05-1.97-.16-2.64-.11-.67-.29-1.18-.56-1.52s-.62-.59-1.06-.73l.08-.11h7.3l.08.11c-.44.14-.79.38-1.06.73-.26.34-.45.85-.57,1.52-.12.67-.17,1.55-.17,2.64v12.45ZM112.09,111.18v-.42h2.17c.78,0,1.53-.2,2.27-.6.74-.4,1.42-1.01,2.04-1.84.62-.83,1.13-1.89,1.53-3.17l.16.08-1.22,5.95h-6.95Z"/>
    <path class="cls-2" d="M127.5,111.08l-.08.11h-7.3l-.08-.11c.44-.14.79-.38,1.06-.73.26-.34.45-.85.56-1.52.11-.67.16-1.55.16-2.64v-7.46c0-1.09-.05-1.97-.16-2.64-.11-.67-.29-1.18-.56-1.52s-.62-.59-1.06-.73l.08-.11h7.3l.08.11c-.44.14-.79.38-1.06.73-.26.34-.45.85-.57,1.52-.12.67-.17,1.55-.17,2.64v7.46c0,1.09.06,1.97.17,2.64.11.67.3,1.18.57,1.52.26.34.62.59,1.06.73Z"/>
    <path class="cls-9" d="M135.43,111.08l-.08.11h-7.01l-.08-.11c.44-.14.79-.38,1.06-.73.26-.34.45-.85.56-1.52.11-.67.16-1.55.16-2.64v-7.46c0-1.09-.05-1.97-.16-2.64-.11-.67-.29-1.18-.56-1.52s-.62-.59-1.06-.73l.08-.11h7.14l.08.11c-.41.14-.73.38-.96.73s-.41.85-.52,1.52c-.11.67-.16,1.55-.16,2.64v7.46c0,1.09.04,1.97.11,2.63s.21,1.17.42,1.52c.21.35.54.6.98.74ZM133.95,102.78l5.71-6.74c.42-.49.53-.95.33-1.38-.2-.42-.62-.7-1.26-.82l.08-.11h5l.11.11c-.92.19-1.68.51-2.29.94-.61.43-1.18.97-1.71,1.63l-3.04,3.7,5.66,8.51c.42.63.81,1.17,1.15,1.6.34.43.75.72,1.23.86l-.08.11h-7.09l-.08-.11c.56-.18.85-.47.86-.89,0-.41-.19-.93-.59-1.55l-3.99-5.87Z"/>
    <path class="cls-6" d="M152.27,102.49h-1.35v8.28h1.29c.85,0,1.61-.16,2.3-.48.69-.32,1.28-.79,1.78-1.43.5-.63.9-1.41,1.2-2.33l.16.08-.85,4.57h-11.47l-.08-.11c.44-.14.79-.38,1.06-.73.26-.34.45-.85.56-1.52.11-.67.16-1.55.16-2.64v-7.46c0-1.09-.05-1.97-.16-2.64-.11-.67-.29-1.18-.56-1.52s-.62-.59-1.06-.73l.08-.11h11.34l.79,4.23-.16.08c-.51-1.27-1.2-2.24-2.08-2.91s-1.95-1-3.24-1h-1.08v7.96h1.35c.72,0,1.28-.23,1.68-.7.4-.47.73-1.25.99-2.34l.16.08v6.35l-.16.11c-.25-1.09-.57-1.88-.96-2.37-.4-.48-.97-.73-1.71-.73Z"/>
    <path class="cls-7" d="M161.42,104.6c0-.67.09-1.25.26-1.75.18-.49.39-.94.65-1.33.25-.4.51-.78.75-1.15.25-.37.45-.77.62-1.19.17-.42.25-.91.25-1.45,0-.93-.25-1.67-.75-2.19-.5-.53-1.11-.79-1.81-.79-.58,0-1.15.19-1.69.57s-1,.96-1.35,1.76l-.16-.08c.33-1.16.97-2.06,1.9-2.7.93-.63,2-.95,3.2-.95.88,0,1.67.17,2.35.5.69.33,1.24.81,1.65,1.41.41.61.62,1.34.62,2.18s-.25,1.64-.75,2.37c-.5.73-1.23,1.37-2.18,1.92-.72.39-1.33.76-1.82,1.12-.49.36-.86.76-1.11,1.2-.25.44-.39.97-.42,1.59h-.21v-1.03ZM163.62,110.83c.39-.41.58-.89.58-1.44s-.19-1.04-.58-1.44-.87-.59-1.45-.59c-.55,0-1.02.2-1.41.59s-.6.88-.6,1.44.2,1.03.6,1.44.87.62,1.41.62c.58,0,1.07-.21,1.45-.62Z"/>
  </g>
</svg>