<?xml version="1.0" encoding="UTF-8"?>
<svg id="_레이어_2" data-name=" 레이어 2" xmlns="http://www.w3.org/2000/svg" version="1.1" xmlns:xlink="http://www.w3.org/1999/xlink" viewBox="0 0 141.7 141.7">
  <defs>
    <style>
      .cls-1 {
        fill: url(#_무제_그라디언트_3);
      }

      .cls-1, .cls-2 {
        stroke-width: 0px;
      }

      .cls-2 {
        fill: url(#_무제_그라디언트_2);
      }
    </style>
    <linearGradient id="_무제_그라디언트_2" data-name="무제 그라디언트 2" x1="70.8" y1="21.7" x2="70.8" y2="133.9" gradientTransform="translate(0 142.2) scale(1 -1)" gradientUnits="userSpaceOnUse">
      <stop offset="0" stop-color="#f4b4d0"/>
      <stop offset=".1" stop-color="#f6c1c6"/>
      <stop offset=".3" stop-color="#f9d1b9"/>
      <stop offset=".5" stop-color="#fbd8b5"/>
      <stop offset="1" stop-color="#fff"/>
    </linearGradient>
    <linearGradient id="_무제_그라디언트_3" data-name="무제 그라디언트 3" x1="70.9" y1="21.7" x2="70.9" y2="133.9" gradientTransform="translate(0 142.2) scale(1 -1)" gradientUnits="userSpaceOnUse">
      <stop offset="0" stop-color="#f4b4d0"/>
      <stop offset=".1" stop-color="#f6c1c6"/>
      <stop offset=".3" stop-color="#f9d1b9"/>
      <stop offset=".5" stop-color="#fbd8b5"/>
      <stop offset="1" stop-color="#fff"/>
    </linearGradient>
  </defs>
  <path class="cls-2" d="M69.1,89.5c.2.4.8.6,1.7.6s1.5-.2,1.7-.6c.6-1.2-.5-4.1-1.7-6.4-1.3,2.4-2.4,5.3-1.7,6.4Z"/>
  <path class="cls-1" d="M104.9,85.5c0-.1,0-.2,0-.4h0c0-.4-.3-.7-.7-.9-.3-.1-25.7-13-31-26.8,8.7-1.1,15.4-8.6,15.4-17.5s-7.9-17.7-17.7-17.7-17.7,7.9-17.7,17.7,6.7,16.4,15.4,17.5c-5.3,13.8-30.7,26.6-31,26.8-.4.2-.7.6-.7,1.1h0c0,0,0,.2,0,.2h0c.8,13.2,13.8,20.3,23.2,25.5,4.7,2.6,9.5,5.2,9.5,7.1s.6,1.4,1.4,1.4h0c.8,0,1.4-.6,1.4-1.4,0-1.9,4.8-4.5,9.5-7.1,9.5-5.2,22.5-12.4,23.3-25.5h0s0,0,0,0ZM75,90.8c-.5.9-1.6,2.1-4.2,2.1s-3.7-1.1-4.2-2.1c-1.7-3.2,1.6-9,2.8-10.8v-18.3c.5-.9,1-1.8,1.4-2.7.4.9.8,1.8,1.4,2.7v18.3c1.2,1.8,4.5,7.5,2.8,10.8Z"/>
</svg>