<?xml version="1.0" encoding="UTF-8"?>
<svg id="_레이어_2" data-name="레이어 2" xmlns="http://www.w3.org/2000/svg" version="1.1" xmlns:xlink="http://www.w3.org/1999/xlink" viewBox="0 0 226.77 226.77">
  <defs>
    <style>
      .cls-1 {
        fill: url(#linear-gradient);
      }

      .cls-1, .cls-2, .cls-3, .cls-4, .cls-5 {
        stroke-width: 0px;
      }

      .cls-2 {
        fill: #f092ae;
      }

      .cls-3 {
        fill: url(#linear-gradient-2);
      }

      .cls-4 {
        fill: url(#linear-gradient-3);
      }

      .cls-5 {
        fill: #a2d7d4;
      }
    </style>
    <linearGradient id="linear-gradient" x1="76.73" y1="155.67" x2="112.17" y2="155.67" gradientUnits="userSpaceOnUse">
      <stop offset=".01" stop-color="#f4b3c2"/>
      <stop offset=".27" stop-color="#f6c1bd"/>
      <stop offset=".69" stop-color="#f9d1b7"/>
      <stop offset="1" stop-color="#fbd8b5"/>
      <stop offset="1" stop-color="#fff"/>
    </linearGradient>
    <linearGradient id="linear-gradient-2" x1="113.38" y1="122.5" x2="113.38" y2="10.26" gradientUnits="userSpaceOnUse">
      <stop offset=".01" stop-color="#f4b4d0"/>
      <stop offset=".13" stop-color="#f6c1c6"/>
      <stop offset=".34" stop-color="#f9d1b9"/>
      <stop offset=".5" stop-color="#fbd8b5"/>
      <stop offset="1" stop-color="#fff"/>
    </linearGradient>
    <linearGradient id="linear-gradient-3" x1="113.39" y1="122.5" x2="113.39" y2="10.26" xlink:href="#linear-gradient-2"/>
  </defs>
  <g>
    <path class="cls-5" d="M56.58,173.39c-17.52,0-17.72-17.54-17.72-17.72,0-.75.61-1.36,1.36-1.36h0c.75,0,1.36.61,1.36,1.36,0,.61.22,15,15,15s15-14.38,15-15v-15h-31.35c-.75,0-1.36-.61-1.36-1.36s.61-1.36,1.36-1.36h32.72c.75,0,1.36.61,1.36,1.36v16.36c0,.18-.2,17.72-17.72,17.72Z"/>
    <path class="cls-1" d="M110.81,137.95c-.75,0-1.36.61-1.36,1.36v15h-24.54v-15c0-.75-.61-1.36-1.36-1.36s-1.36.61-1.36,1.36v15h-2.73v-15c0-.75-.61-1.36-1.36-1.36s-1.36.61-1.36,1.36v32.72c0,.75.61,1.36,1.36,1.36s1.36-.61,1.36-1.36v-15h2.73v15c0,.75.61,1.36,1.36,1.36s1.36-.61,1.36-1.36v-15h24.54v15c0,.75.61,1.36,1.36,1.36s1.36-.61,1.36-1.36v-32.72c0-.75-.61-1.36-1.36-1.36Z"/>
    <g>
      <path class="cls-5" d="M115.96,173.39c-.2,0-.39-.04-.58-.13-.68-.32-.97-1.14-.65-1.82l15.55-32.72c.22-.47.69-.77,1.2-.78.51,0,.99.27,1.23.73l17.16,32.72c.35.67.09,1.49-.57,1.84-.67.35-1.49.09-1.84-.57l-15.9-30.3-14.38,30.25c-.23.49-.72.78-1.23.78Z"/>
      <path class="cls-5" d="M148.41,157.03h-19.17c-.75,0-1.36-.61-1.36-1.36s.61-1.36,1.36-1.36h19.17c.75,0,1.36.61,1.36,1.36s-.61,1.36-1.36,1.36Z"/>
    </g>
    <g>
      <path class="cls-5" d="M186.55,173.39h-32.72c-.75,0-1.36-.61-1.36-1.36v-32.72c0-.75.61-1.36,1.36-1.36h32.72c.75,0,1.36.61,1.36,1.36s-.61,1.36-1.36,1.36h-31.35v29.99h31.35c.75,0,1.36.61,1.36,1.36s-.61,1.36-1.36,1.36Z"/>
      <path class="cls-5" d="M186.55,157.03h-32.7c-.75,0-1.36-.61-1.36-1.36s.61-1.36,1.36-1.36h32.7c.75,0,1.36.61,1.36,1.36s-.61,1.36-1.36,1.36Z"/>
    </g>
  </g>
  <g>
    <path class="cls-3" d="M111.64,91.44c.22.41.81.62,1.74.62s1.53-.21,1.74-.62c.63-1.17-.46-4.05-1.74-6.43-1.29,2.38-2.37,5.26-1.74,6.43Z"/>
    <path class="cls-4" d="M147.46,87.47c0-.13,0-.25-.04-.37,0,0,0,0,0,0-.09-.38-.33-.73-.71-.92-.27-.13-25.71-13-31.01-26.76,8.67-1.14,15.4-8.57,15.4-17.55,0-9.77-7.95-17.72-17.72-17.72s-17.72,7.95-17.72,17.72c0,8.98,6.73,16.41,15.41,17.55-5.3,13.76-30.74,26.62-31.01,26.76-.42.21-.69.62-.74,1.06,0,0,0,0,0,.02,0,.07-.01.14,0,.22,0,.02,0,.03,0,.04h0s0,.01,0,.02c.78,13.11,13.75,20.27,23.23,25.49,4.66,2.58,9.49,5.24,9.49,7.13,0,.75.61,1.36,1.36,1.36h0c.75,0,1.36-.61,1.36-1.36,0-1.87,4.81-4.53,9.46-7.09,9.49-5.24,22.48-12.41,23.26-25.54,0-.01,0-.03,0-.04ZM117.53,92.72c-.5.94-1.63,2.06-4.15,2.06s-3.65-1.12-4.15-2.06c-1.73-3.24,1.63-8.97,2.78-10.78v-18.3c.52-.9.98-1.81,1.37-2.73.38.91.84,1.81,1.36,2.71v18.32c1.16,1.8,4.52,7.54,2.79,10.78Z"/>
  </g>
  <g>
    <path class="cls-2" d="M64.96,197.47v-.02l-.08-.07-.15-.07v-.08l-.07-.08-.13-.13c-.2-.26-.31-.35-.28-.43l-.07-.3-.02-.21v-.33s-.02-.08.03-.12l-.02-.03v-.07s-.02-.07.03-.18c.02-.22.03-.17.07-.15l.05-.35.21-.45.2-.18.07-.12c.17-.18.25-.25.3-.28.1-.12.17-.15.36-.25,0-.07,0-.12.32-.08l-.07-.07.08-.05c.07-.03.15-.03.2-.02.07-.05.17-.12.23-.13.1-.03.13-.07.22-.08l.12-.03h.08l.15-.03.43.02.22-.02c-.02-.07.2-.08.21.02l.4-.05.1.05.23.15c.07,0,.15-.02.2.08.08,0,.1.03.13.05.15.1.17.13.13.33l.12-.05c.02.12.05.13.1.15l.02.12c.05.08.12.23.1.25l-.03.03c.05.21,0,.25.02.35l-.08.25-.12.12-.07.2-.12.08-.05.17-.1.02-.2-.07c.03-.1.03-.12.03-.17l.07-.03.07-.17c.05-.13.05-.2.13-.26l.07-.33c-.18-.43-.26-.48-.35-.51-.08-.05-.17-.08-.23-.13h-.02l-.2-.03c-.17.02-.2-.03-.45-.15-.13.08-.32.08-.28.03l-.03.05-.13.03-.3.03-.2.03-.18.07c-.15.02-.36.12-.43.15l-.6.4-.13.15-.1.1-.17.23-.1.13-.08.25c-.03.13-.03.18-.08.26,0,.07,0,.17-.02.25.02.33,0,.26,0,.43l.02.17.2.41c.08.08.15.13.21.2.03.03.18.17.22.2l.12.1.1.1.02.05.13.07c.21.05.28.1.36.13.08.03.18.08.26.12.1.03.2.07.3.12.17.08.3.13.43.2.08.03.17.08.23.12.22.1.4.2.56.3l.05.03c.22.12.32.2.36.25.07.07.22.17.23.17,0,.02.07.15.23.28l.18.3h.02c.17.22.17.28.21.45,0-.02.03.1.05.23.03.08.03.22.02.33,0,.1-.02.17-.03.23-.08.17-.17.26-.23.36l-.08.1c-.08.12-.15.2-.22.27l-.05.03c-.18.1-.3.17-.4.23-.17.1-.3.2-.4.26l-.17.07c-.18.07-.25.07-.35.1-.1.03-.17.03-.25.07-.12.03-.26.1-.4.17-.15.08-.12-.03-.07-.15.03-.08.08-.15.13-.2l.02-.03c.12-.1.26-.18.46-.23.03,0,.1-.02.15-.07l.15-.05s.1-.05.15-.08l.35-.17.22-.1c.02-.2.08-.13.13-.21h.08c.02-.07.08-.15.15-.17l.08-.23c.07-.17.07-.28.05-.4l.02-.08v-.03l-.1-.25-.05-.18c-.15-.21-.25-.31-.28-.35-.07-.03-.1-.1-.23-.2l-.13-.15-.21-.12-.21-.17c-.13,0-.27-.1-.28-.15l-.46-.18c-.2-.1-.3-.12-.41-.18l.02-.02h-.12s-.26-.1-.13-.2c-.2.07-.28.02-.33-.02l-.32-.15c-.2-.13-.35-.2-.38-.25-.03,0-.13-.03-.15-.1Z"/>
    <path class="cls-2" d="M79.11,198.38l-.02.17c-.08.12-.1.15-.1.15h-.1c0,.1.02.17,0,.23-.13.43-.15.5-.21.55l-.08.2s-.05.17-.07.23c-.15.1-.17.13-.18.15l-.2.2h-.02l-.61.36c-.08.03-.12.12-.2,0l-.03.03-.17.03h-.02l-.15-.03-.3-.03c-.25-.15-.26-.23-.31-.4-.1.08-.12.05-.17-.17l-.07-.02-.13-.18-.02-.13-.03-.08-.05-.13c-.12-.26-.12-.4-.15-.45-.05-.18-.07-.26-.05-.36l-.03-.17-.03-.18c-.07-.2-.05-.31.03-.4l-.07.03c0-.13-.02-.23-.03-.33l-.17-.5h.17l-.02-.33v-.02c-.02-.17-.03-.22-.05-.22l.03-.08.03-.18-.03-.02.02-.17c0-.1,0-.18.02-.21v-.1h-.02l.02-.17-.03-.03.03-.3.15-.36h.03s0-.13,0-.2c-.03-.12-.02-.23.05-.35l-.03.02v-.15l.02-.15c.07-.08.15-.12.18-.13.08-.03.17-.03.18-.03l.02.21-.07.05-.02.33v.31l.03.33v.12l-.02.31v.26c-.07.18-.05.2-.03.23l.02.3-.03.03.03.3c.02.1.02.25.02.35,0,.07.02.1,0,.18.03.15.03.28.03.41,0,.02.02.1.03.2l-.02.12.02.13.03.25.07.12c-.02.13-.02.18.02.26l.07.26c.18.55.23.63.26.68l.05.1c.07.08.1.12.12.13.05.05.12.12.1.13l.25.07.13-.02.1.03c.33-.21.35-.23.36-.25l.08-.08.15-.1c.18-.18.21-.23.21-.26.07-.17.12-.3.18-.45l.13-.35s.02-.03.03-.07c.07-.18.12-.36.17-.55.02-.05.05-.17.08-.3.03-.13.05-.28.07-.41.05-.02.07-.18.1-.33.02-.08.03-.18.05-.25l.07-.15-.03.03c.02-.1.05-.26.07-.41l.03-.15c-.03-.13-.03-.23-.03-.31,0-.17.03-.3.05-.43v-.63c0-.07-.02-.12-.03-.18,0-.35-.02-.51-.03-.66l-.03-.13c-.1-.17-.13-.26.07-.33.07.02.17.08.22.2.02,0,.05.05.08.1.05.2.05.3.12.38.03.2.05.3.05.41,0,.18-.02.3-.05.43v.08c.03.28.07.4.05.43.03.2.02.43.02.65v.02h-.02v.32l-.05.17c-.05.25-.05.45-.08.6-.02.08-.05.15-.07.22l-.08.3-.02.07-.07.15v.22l-.03.05-.03.18Z"/>
    <path class="cls-2" d="M89.36,200.46c-.07,0-.28.13-.46.17v.02c-.13.03-.2.05-.26.05l-.4.08-.12.07h-.13c-.12.05-.23.08-.36.1-.07.02-.13.02-.2.02l-.05-.02h-.05l-.12.02-.25-.07c-.21-.07-.4-.15-.36-.13-.25-.1-.21-.13-.3-.18-.1-.1-.13-.1-.07-.12l-.08-.03-.03-.07-.33-.55-.02-.08-.07-.23.07-.18s-.05-.12-.05-.23l-.02-.18c0-.15.02-.28.1-.27l-.02-.17s0-.13.02-.18c.05-.13.07-.26.13-.35l.12-.21v-.07l.07-.21.05-.13.12-.13h-.02l.12-.13.03-.17c.12-.23.18-.35.33-.38h-.05c-.03-.07,0-.1.07-.15l-.02-.05.12-.28.18-.03v-.07l.15-.26.1-.05.15-.15.03-.07c.07-.07.12-.15.25-.17l.15-.2.08-.02.26-.15.15-.1.3-.1h.31v.02c.21-.08.28-.03.33-.02h.23v.07h.03c.07.03.13.05.17.1l.07.02c.05.1.07.12.05.17l.02.02.02.12c.1.13.1.25.13.31l-.02.1-.03.12.02.07.02.13-.05.1v.03s-.02.07-.07.18c-.05.12-.15.27-.33.46h.1l-.07.08-.12.18-.1.13c-.02.07-.07.12-.12.18l-.18-.03.1-.46.1-.22.08-.25.1-.33c0-.07,0-.13.02-.2l.02-.28-.18-.23-.03-.03h-.33l-.08.02-.23.07c-.1.02-.35.07-.17.05l-.12.07c-.23.15-.21.17-.35.26l-.03.05-.07.07-.23.28-.15.15c-.07.07-.12.1-.17.25,0,0-.03.03-.05.07-.17.22-.23.31-.3.38l-.02.05c-.4.66-.43.81-.46.91l-.07.13-.12.15-.07.18-.02.25c-.02.07-.02.12-.03.18-.02.1-.03.18-.03.28v.4l.05.18.02.03c.07.17.18.43.33.48-.02.07.1.13.22.21l.12.12h.81l.13-.03.3-.05c.13-.02.28-.05.43-.1l-.05.03c.18-.07.28-.12.33-.15.1,0,.21-.02.35-.07.07-.02.13-.03.2-.07.1-.05.2-.1.3-.17.08-.07.08.1.03.25-.02.07-.03.13-.08.17-.08.12-.18.13-.31.18Z"/>
    <path class="cls-2" d="M96.48,198.08l-.1-.13-.03-.45s-.03-.2.02-.23h-.03v-.84l.05-.43h-.02c0-.08,0-.22.08-.28l-.08.02v-1.08l.03.03v-.38l-.02-.1v-.23l.03-.03-.03-.1-.02-.23.07-.32.15-.17.26-.07c.07.08.13.13.13.23l-.05.07.02.03.02.07.02.17-.05.03v.02l.02.05-.02.18.03.17v.43l-.05.18s.03.13.03.18v.21l-.02.02v.38l.02.07v.08c0,.15,0,.21-.02.26l-.02.51v.23c-.07.36,0,.56-.07.66v.07c-.02.12,0,.17.02.18.03.22.03.4.05.58,0,.1.02.18.03.26,0,.15,0,.28.03.45-.02.03,0,.17,0,.28l.03.31.02.12.08.33c.02.18.05.3.08.4.15.51.17.6.2.63-.05-.03-.31.12-.38-.02l-.13-.26c-.07-.41-.1-.35-.12-.4-.08-.1-.07-.13-.07-.2v-.03c-.05-.1-.12-.26-.15-.41l.02.02-.03-.13-.02-.12-.02-.05.03-.02c-.03-.12-.02-.22-.05-.32v-.35c-.03-.17-.03-.21-.07-.36,0-.03,0-.13.02-.17l.05-.02ZM101.19,194.53h-.02c-.05-.08-.03-.43-.03-.51l.03.07v-.2l.02.02v-.12c0-.07-.07-.12,0-.3l.03-.1c.02-.07.02-.13.02-.2,0-.1.07-.22.31-.2l.15.02c.07.08.08.27.08.23l-.02.2v.17l.02.17s0,.1-.02.17l.03.12v.33l-.05.4-.08.12h.03v.05l-.03.18v.25c0,.07.02.15.02.2-.02.17,0,.28,0,.41v1.03c.02.38.03.53.03.58v.27h.03c0,.1.02.2.02.3v.41c0,.15.02.26.02.36,0,.12,0,.22.02.32,0,.08.02.21.03.31-.02.21-.02.4-.03.55l-.05.45c-.28.03-.25-.3-.3-.63-.17-.07-.08-.51-.07-.61,0-.07,0-.13.02-.2v-.35c-.12-.08-.1-.23-.03-.28-.05-.08-.07-.22-.08-.35v-.22l-.05-.13-.03-.46.03-.08c-.03-.13-.05-.3-.05-.45v-.28l.02-.1-.15.13-.18.25c-.2.3-.28.38-.35.43l-.25.2-.07-.03-.1.08h-.03l-.15.15-.2.07-.17.12-.05.02-.08.02h-.12l-.15.1-.15.08h-.07v.02h-.07l-.03.05h-.25c-.2.03-.31.07-.28.03l-.35.1-.1.1-.3.1v.07l-.23.1-.02.02-.21.05v-.21c.08-.18.18-.25.33-.23l.13-.18.21-.08c.3-.15.38-.18.43-.23.17-.03.23-.07.31-.1.1-.05.2-.08.35-.15l-.03.05.1-.05c.13-.1.23-.12.3-.12h.07l.02-.02c.31-.18.4-.26.58-.28l.1-.13.03-.02c.05-.07.17-.13.2-.2.05-.05.1-.1.15-.17l.13-.15.18-.27c.08-.2.08-.21.13-.3.17-.5.23-.65.27-.7l.07-.36-.03-.05s-.02-.12.1-.2l-.05.02Z"/>
    <path class="cls-2" d="M110.36,198.72l-.55.18-.15.07h-.18c-.08.18-.12.25-.15.33-.05.13-.1.25-.15.38l-.02.03-.13.22c-.03.23-.08.35-.07.41-.02.1-.05.18-.08.27-.07.18-.13.31-.2.46-.02.03-.08.15-.13.33-.02.02-.07.15-.08.23l-.15.25s-.07.1-.1.17c-.07.13-.12.26-.17.45.02-.05-.18-.25-.18-.41-.02-.12.03-.2.1-.33-.02,0,0-.12,0-.3l.05.08.05-.13c.07-.13.17-.28.28-.38l-.07-.05c-.02-.15.02-.18.05-.23.03-.18.1-.36.13-.43l.02-.05.02-.07.08-.25.08-.1c0-.07.02-.13.03-.2.02-.1.18-.45.22-.56l-.32.12-.1-.02-.12.02-.1-.18s.02-.1.08-.13l.4-.15s.13-.12.18-.12l-.02-.08h.1l.08-.13.07-.33c.07-.2.03-.28.15-.28l-.02-.13s.02-.1.07-.15v-.02s0-.22.17-.28l-.03-.26.17-.36h.05c.02-.08.02-.1.05-.18l.12-.3c.03-.12.02-.21.1-.3l.03-.12.07-.17.08-.12c.08-.26.05-.2.07-.25l.07-.18c.07-.15.1-.23.13-.3-.05-.15.22-.38.15-.33l.02-.13.07-.17.07-.12.05-.08.05-.07v-.13l.05-.2v-.4s-.07-.05,0-.21v-.05c-.08-.22-.07-.26,0-.28l-.02-.33c-.07-.02-.1-.08.17-.53l-.03.02.03-.28v-.17l-.02-.17.35-.12.07.45h-.02l-.02.25v.18c0,.08,0,.33-.03.4l.05.31-.03.08.21-.12.12-.17.2-.26c.08-.2.12-.12.18-.08l.07-.1.1-.03.18.03s-.02.12-.05.18l-.07.07c0,.07-.03.1-.18.2v.08l-.12.08-.08.15c-.15.31-.23.45-.28.51l-.03.07c-.03.2-.12.28-.18.33l.03-.02v.03l-.02.07v.1l.03.22.05.43c.02.17.02.23.02.28v.1c.07.23.02.43,0,.43l.02.05c.02.07.03.18.05.28.07.55.1.73-.03.66.12.28.26.31.12.38,0,.08.03.17.05.25,0,.63,0,.41.1.45l-.08.18.08.18c.02.08.02.12.03.18.18.05.36.02.48-.03l.07.02c.12-.02.25-.02.36-.02l.38-.03c.18-.07.45-.03.53,0l.28-.03c.18.05.33.08.4.07.03.46-.13.3-.28.33-.15.1-.43.05-.45.07-.2,0-.35.03-.35.05l-.07.02h-.02s-.15.05-.25-.02c-.08.03-.15.03-.21.03l-.15.02h-.08l-.18.05c-.1-.02-.28-.02-.33.07l.08.4c.02.1.02.18.03.28l.05.3s.02.1.03.18c.02.07.02.15.03.25.1.45.17.61.15.73.05.2.08.31.1.45.02.13.02.23.03.35-.02-.02,0,.05.02.12.02.07.02.13.03.22.05.48.05.58.02.65-.12.15-.13.2-.23.33-.13-.21-.05-.18-.08-.23-.07.02-.1-.03-.1-.08l.02-.1c-.03-.17-.05-.26-.05-.36s.02-.2.03-.28l-.05-.15c-.07-.05-.07-.1-.07-.18-.07-.15-.12-.3-.12-.46v-.05l-.1-.36v-.02c-.03-.25-.05-.36-.07-.48-.02-.05-.02-.13-.03-.18l-.02-.17v-.1l-.1-.43-.08-.17c0-.12,0-.25.03-.31h-.05l-.07.02h-.03l-.28.02-.17.02-.07.03h-.05s-.15.07-.36,0l-.17.13ZM111.01,194.9l-.12.02.02.17c-.08.28-.17.33-.18.36,0,.17-.03.22-.05.25-.1.17-.18.36-.18.41-.03.1-.07.15-.13.27l-.02.1-.1.15v.02l-.17.41c-.05.15-.12.33-.08.36l-.08.07c-.07.12-.12.13-.12.15v.07c0,.23-.07.41-.1.55l-.03.1.25-.1.13-.03.31-.07.12-.02h.05l.15-.05.4-.03c.2-.02.27-.02.32-.03-.02-.15-.03-.2-.02-.26-.05-.31-.08-.48-.05-.53l-.08-.07v-.17l-.03-.5.02-.05-.05-.15-.03-.12-.03-.2.02-.13c-.02-.1-.05-.08-.03-.2l-.03-.17.02-.1c-.07-.02-.08-.08.02-.23l-.07-.12-.02-.13Z"/>
    <path class="cls-2" d="M121.34,193.59h-.07l-.05.07-.1.02h-.07l-.05.02-.27.05-.05.05h-.08l-.12.03v.02l-.12.08-.13.03-.23.1h-.03l-.12.13-.05.08-.07.08h.02l-.05.07-.02.02-.07.13-.02.08s0,.1.05.2c-.02.03-.15.05-.2.05l-.02-.02-.18-.12-.07-.33v-.15c.41-.63.5-.68.6-.71l.02-.05.2-.08.05-.03.1-.03c.23-.1.33-.12.4-.13l.08-.03.21-.03.13-.03h.13l.07-.03v-.03l.2-.07c.12-.03.18-.07.33-.08.23-.03.3-.12.56-.03l.13-.05c.12-.05.33-.03.5.05l-.03-.05c.23.03.3.07.35.08l.12.13-.35.25-.13-.03h-.2l-.23.08c-.13,0-.15-.02-.17-.03-.1.05-.17.07-.33.07l-.13.08h-.07l-.1-.02h-.02s-.1.07-.2.05l-.08.08ZM120.64,197.6l-.07-.03-.1-.02-.26.22v.07c-.02.15-.1.15-.25.3v-.18c-.07-.07-.1-.13-.27-.3l.12-.05.17-.31c.05-.1.15-.08.23-.18h-.03l.08-.1.35-.2.1-.1.05-.15c-.1,0,0-.23-.05-.38l.07-.26v-.18l.17.07.1.12c.08.03.08.1.08.17l-.02.02v.08l.05.33v.02l.08-.05c.17-.08.17-.07.21-.07h.02c.1-.07.15-.08.25-.1.26-.08.51-.15.48-.17h.28c.13-.12.27-.15.33-.2l.2-.1c.3-.07.36-.1.81-.18.15-.05.21-.07.28-.08.23-.02.3-.02.38-.05l.17-.03.36.03s.07.46-.15.15c.07.18.05.18-.02.18-.2.1-.35.1-.45.05l-.12.07-.46.18-.03-.02-.25.08-.15.02-.17.07-.25.07-.61.3-.15.03-.25.1-.1.08h-.15l-.03.03h-.1l-.05.02-.17.1h-.02l-.13.1c.05.28.05.61.05.7l.03.18c0,.21,0,.31-.08.38l.13.13c-.02.1-.05.12-.12.38l.1-.15c.02.53-.03.65-.03.71-.03.1-.05.26-.07.43l-.13.15.15-.1.07-.02h.03l.07-.07v-.05c.1-.05.22-.12.32-.17.08-.03.17-.08.23-.12.12-.07.21-.13.31-.18l.12-.05c.17-.08.2-.08.45-.18l.13-.05c.12-.05.2-.08.23-.1l.17-.03.3-.15c.2-.1.31-.17.41-.2l.15-.05c.15,0,.31-.07.45-.13.26-.08.41-.1.53-.13.12-.02.21-.07.23-.1,0,.07.05.25-.02.3-.07.15-.25.12-.35.21-.13.08-.26.12-.4.13l-.07.02-.2.1c-.05.08-.17.1-.2.08l-.13.1-.18.08c-.51.23-.6.26-.68.3l-.63.25-.46.23-.07.08-.03.02-.05.05v-.03h-.1c-.03.07-.08.12-.13.13l-.07.03-.23.13-.23.17-.07.07s-.05.03-.1.03l-.23.18-.23.23-.02-.36v-.25l.02-.1.03-.02-.02-.08.02.02.02-.17.02-.13.08-.15-.02-.08.02-.28.02-.17v-.03l.02-.23-.02-.43.02-.1c-.05-.07-.07-.12.02-.22l-.03.02c-.03-.1-.03-.18-.03-.28l-.03-.1-.05-.33Z"/>
    <path class="cls-2" d="M131.69,198.08l-.1-.13-.03-.45s-.03-.2.02-.23h-.03v-.84l.05-.43h-.02c0-.08,0-.22.08-.28l-.08.02v-1.08l.03.03v-.38l-.02-.1v-.23l.03-.03-.03-.1-.02-.23.07-.32.15-.17.26-.07c.07.08.13.13.13.23l-.05.07.02.03.02.07.02.17-.05.03v.02l.02.05-.02.18.03.17v.43l-.05.18s.03.13.03.18v.21l-.02.02v.38l.02.07v.08c0,.15,0,.21-.02.26l-.02.51v.23c-.07.36,0,.56-.07.66v.07c-.02.12,0,.17.02.18.03.22.03.4.05.58,0,.1.02.18.03.26,0,.15,0,.28.03.45-.02.03,0,.17,0,.28l.03.31.02.12.08.33c.02.18.05.3.08.4.15.51.17.6.2.63-.05-.03-.31.12-.38-.02l-.13-.26c-.07-.41-.1-.35-.12-.4-.08-.1-.07-.13-.07-.2v-.03c-.05-.1-.12-.26-.15-.41l.02.02-.03-.13-.02-.12-.02-.05.03-.02c-.03-.12-.02-.22-.05-.32v-.35c-.03-.17-.03-.21-.07-.36,0-.03,0-.13.02-.17l.05-.02ZM136.4,194.53h-.02c-.05-.08-.03-.43-.03-.51l.03.07v-.2l.02.02v-.12c0-.07-.07-.12,0-.3l.03-.1c.02-.07.02-.13.02-.2,0-.1.07-.22.31-.2l.15.02c.07.08.08.27.08.23l-.02.2v.17l.02.17s0,.1-.02.17l.03.12v.33l-.05.4-.08.12h.03v.05l-.03.18v.25c0,.07.02.15.02.2-.02.17,0,.28,0,.41v1.03c.02.38.03.53.03.58v.27h.03c0,.1.02.2.02.3v.41c0,.15.02.26.02.36,0,.12,0,.22.02.32,0,.08.02.21.03.31-.02.21-.02.4-.03.55l-.05.45c-.28.03-.25-.3-.3-.63-.17-.07-.08-.51-.07-.61,0-.07,0-.13.02-.2v-.35c-.12-.08-.1-.23-.03-.28-.05-.08-.07-.22-.08-.35v-.22l-.05-.13-.03-.46.03-.08c-.03-.13-.05-.3-.05-.45v-.28l.02-.1-.15.13-.18.25c-.2.3-.28.38-.35.43l-.25.2-.07-.03-.1.08h-.03l-.15.15-.2.07-.17.12-.05.02-.08.02h-.12l-.15.1-.15.08h-.07v.02h-.07l-.03.05h-.25c-.2.03-.31.07-.28.03l-.35.1-.1.1-.3.1v.07l-.23.1-.02.02-.21.05v-.21c.08-.18.18-.25.33-.23l.13-.18.21-.08c.3-.15.38-.18.43-.23.17-.03.23-.07.31-.1.1-.05.2-.08.35-.15l-.03.05.1-.05c.13-.1.23-.12.3-.12h.07l.02-.02c.31-.18.4-.26.58-.28l.1-.13.03-.02c.05-.07.17-.13.2-.2.05-.05.1-.1.15-.17l.13-.15.18-.27c.08-.2.08-.21.13-.3.17-.5.23-.65.27-.7l.07-.36-.03-.05s-.02-.12.1-.2l-.05.02Z"/>
    <path class="cls-2" d="M146.25,195.25c-.02.15-.03.28-.1.41l.05-.02c-.02.2.03.2-.03.43v.05l-.07.15v.05l-.03.3-.02.07.03.07-.07.28v.07l-.05.18-.02.3-.02.18c-.05.13-.03.17-.03.23-.02.05-.05.2-.1.28.03.07.03.17.03.25-.02.08,0,.21-.07.33.02,0,.02.13.02.25,0,.08-.02.17-.02.21l-.02.15.02.05-.05.12c.02.08.02.2.02.2l-.02.08.03.46h-.18l-.35.02c-.13-.25-.17-.38-.18-.5-.02-.08-.03-.17-.03-.25l-.02-.07c-.07,0-.07-.27-.08-.31v-.12l-.02-.08s-.12-.17-.1-.18l-.1-.15.03-.07-.07-.02-.1-.45-.05-.2h-.05c-.05-.15-.03-.18-.02-.3-.05,0-.07-.05-.1-.12-.05-.12-.08-.4.12-.48l-.15.03c-.08-.1-.08-.17-.08-.22-.08-.1-.13-.15-.12-.21v-.12l-.08-.08h.05l-.08-.1.03-.28c-.02-.12-.05-.2-.08-.26-.1-.25-.13-.36-.17-.5-.03-.08-.07-.2-.1-.28l.05.05c-.08-.36-.12-.46-.15-.53s-.07-.15-.07-.23l-.1-.51c-.05-.1-.1-.17-.2-.33l.36.02c.08.08.12.17.1.18l.07.1.12.5c.12.21.15.31.18.41.05.17.1.3.15.4l-.07-.07c.1.3.12.38.15.45l.05.13c.07.2.1.3.13.41.03.08.05.17.08.25.03.12.08.23.12.38.05.15.07.25.1.33.13.26.17.35.18.45,0-.02.02.1.03.18.1.17.08.18.2.5-.02-.02,0,.13.02.18.13-.43.15-.55.17-.65v-.12c.03-.21.05-.33.07-.41.07-.27.08-.43.1-.61l.03-.26.05-.33c.02-.1.03-.18.05-.26.02-.1.02-.2.03-.31-.02-.03-.02-.1,0-.15.03-.15.05-.23,0-.31.08-.36.12-.56.07-.55.03-.08.03-.17.03-.3,0,.02,0-.05.02-.12l.02-.12c-.02-.08-.03-.21-.07-.35-.05-.21-.1-.38-.1-.41l.28.26.36.33c.12.15.18.25.27.36l.1.13c.05.08.12.17.18.25.08.12.15.25.23.35l.1.27c.08.13.12.23.15.3.03.1.05.2.05.21l.17.17c.05.07.15.21.13.18.05.1.1.21.15.31.03.07.07.17.1.23.08.18.17.35.25.53l.02.03c.07.13.12.26.18.4.05.13.12.25.17.38.07.13.12.26.18.4l.03.1.22.48v-.08l-.02-.2c.02-.15.03-.3.05-.43.02-.15.02-.28.03-.43l.02-.1c0-.12.02-.18.02-.22.02-.18.03-.33.05-.5.02-.1.02-.2.03-.3.02-.17.03-.31.07-.48,0,.03,0-.05.02-.15.02-.12.02-.23.03-.35.02-.1.02-.2.02-.28,0-.1.02-.18.02-.28,0-.08.02-.15.02-.22v-.31c-.02-.26,0-.36,0-.48,0-.1-.02-.22-.02-.32,0-.08,0-.18-.02-.26s-.03-.2-.07-.31l-.05-.13c-.03-.13-.07-.25-.13-.38-.05-.1.05-.1.13-.08l.27.23c.1.17.15.33.18.48l.03.12c.02.15.02.32.03.46.02.15.03.3.03.38.02-.05.03.02.03.08.02.15.02.33.02.5,0,.05,0,.17-.02.27-.02.12-.05.23-.08.33v.26l-.02.28v.4c-.02.12-.02.21-.07.31.03-.03.03.05.03.15,0,.13-.02.28-.03.38l-.02.13c-.02.1-.02.23-.02.43l-.03.02v.05l-.03.18v.13l-.02.17c-.02.2-.05.31-.07.35-.05.28-.05.43-.07.56l-.02.1c0,.13-.02.3-.02.33l-.02.45-.02.05-.03.08h-.18l-.02-.07s-.05-.1-.08-.17c-.08-.17-.17-.36-.23-.48l-.05-.13c-.15-.28-.15-.38-.18-.43-.03-.03,0-.07-.17-.2.07.02.05-.05.02-.12l-.08-.25-.17-.3c-.02-.08-.1-.08-.02-.28-.17-.23-.23-.26-.31-.48l-.08-.13-.25-.5c-.08-.15-.12-.23-.17-.33l.02-.02c-.07-.15-.18-.35-.28-.53h.02l-.1-.12c-.07-.07-.17-.28-.22-.46l-.07-.07c-.12-.17-.13-.2-.2-.38l-.12.22c-.07.21-.07.26-.07.31v.02Z"/>
    <path class="cls-2" d="M158.57,198.72l-.55.18-.15.07h-.18c-.08.18-.12.25-.15.33-.05.13-.1.25-.15.38l-.02.03-.13.22c-.03.23-.08.35-.07.41-.02.1-.05.18-.08.27-.07.18-.13.31-.2.46-.02.03-.08.15-.13.33-.02.02-.07.15-.08.23l-.15.25s-.07.1-.1.17c-.07.13-.12.26-.17.45.02-.05-.18-.25-.18-.41-.02-.12.03-.2.1-.33-.02,0,0-.12,0-.3l.05.08.05-.13c.07-.13.17-.28.28-.38l-.07-.05c-.02-.15.02-.18.05-.23.03-.18.1-.36.13-.43l.02-.05.02-.07.08-.25.08-.1c0-.07.02-.13.03-.2.02-.1.18-.45.22-.56l-.32.12-.1-.02-.12.02-.1-.18s.02-.1.08-.13l.4-.15s.13-.12.18-.12l-.02-.08h.1l.08-.13.07-.33c.07-.2.03-.28.15-.28l-.02-.13s.02-.1.07-.15v-.02s0-.22.17-.28l-.03-.26.17-.36h.05c.02-.08.02-.1.05-.18l.12-.3c.03-.12.02-.21.1-.3l.03-.12.07-.17.08-.12c.08-.26.05-.2.07-.25l.07-.18c.07-.15.1-.23.13-.3-.05-.15.22-.38.15-.33l.02-.13.07-.17.07-.12.05-.08.05-.07v-.13l.05-.2v-.4s-.07-.05,0-.21v-.05c-.08-.22-.07-.26,0-.28l-.02-.33c-.07-.02-.1-.08.17-.53l-.03.02.03-.28v-.17l-.02-.17.35-.12.07.45h-.02l-.02.25v.18c0,.08,0,.33-.03.4l.05.31-.03.08.21-.12.12-.17.2-.26c.08-.2.12-.12.18-.08l.07-.1.1-.03.18.03s-.02.12-.05.18l-.07.07c0,.07-.03.1-.18.2v.08l-.12.08-.08.15c-.15.31-.23.45-.28.51l-.03.07c-.03.2-.12.28-.18.33l.03-.02v.03l-.02.07v.1l.03.22.05.43c.02.17.02.23.02.28v.1c.07.23.02.43,0,.43l.02.05c.02.07.03.18.05.28.07.55.1.73-.03.66.12.28.26.31.12.38,0,.08.03.17.05.25,0,.63,0,.41.1.45l-.08.18.08.18c.02.08.02.12.03.18.18.05.36.02.48-.03l.07.02c.12-.02.25-.02.36-.02l.38-.03c.18-.07.45-.03.53,0l.28-.03c.18.05.33.08.4.07.03.46-.13.3-.28.33-.15.1-.43.05-.45.07-.2,0-.35.03-.35.05l-.07.02h-.02s-.15.05-.25-.02c-.08.03-.15.03-.21.03l-.15.02h-.08l-.18.05c-.1-.02-.28-.02-.33.07l.08.4c.02.1.02.18.03.28l.05.3s.02.1.03.18c.02.07.02.15.03.25.1.45.17.61.15.73.05.2.08.31.1.45.02.13.02.23.03.35-.02-.02,0,.05.02.12.02.07.02.13.03.22.05.48.05.58.02.65-.12.15-.13.2-.23.33-.13-.21-.05-.18-.08-.23-.07.02-.1-.03-.1-.08l.02-.1c-.03-.17-.05-.26-.05-.36s.02-.2.03-.28l-.05-.15c-.07-.05-.07-.1-.07-.18-.07-.15-.12-.3-.12-.46v-.05l-.1-.36v-.02c-.03-.25-.05-.36-.07-.48-.02-.05-.02-.13-.03-.18l-.02-.17v-.1l-.1-.43-.08-.17c0-.12,0-.25.03-.31h-.05l-.07.02h-.03l-.28.02-.17.02-.07.03h-.05s-.15.07-.36,0l-.17.13ZM159.22,194.9l-.12.02.02.17c-.08.28-.17.33-.18.36,0,.17-.03.22-.05.25-.1.17-.18.36-.18.41-.03.1-.07.15-.13.27l-.02.1-.1.15v.02l-.17.41c-.05.15-.12.33-.08.36l-.08.07c-.07.12-.12.13-.12.15v.07c0,.23-.07.41-.1.55l-.03.1.25-.1.13-.03.31-.07.12-.02h.05l.15-.05.4-.03c.2-.02.27-.02.32-.03-.02-.15-.03-.2-.02-.26-.05-.31-.08-.48-.05-.53l-.08-.07v-.17l-.03-.5.02-.05-.05-.15-.03-.12-.03-.2.02-.13c-.02-.1-.05-.08-.03-.2l-.03-.17.02-.1c-.07-.02-.08-.08.02-.23l-.07-.12-.02-.13Z"/>
  </g>
</svg>