<?xml version="1.0" encoding="UTF-8"?>
<svg id="_레이어_2" data-name="레이어 2" xmlns="http://www.w3.org/2000/svg" version="1.1" xmlns:xlink="http://www.w3.org/1999/xlink" viewBox="0 0 170.08 70.87">
  <defs>
    <style>
      .cls-1 {
        fill: #000;
      }

      .cls-1, .cls-2, .cls-3, .cls-4, .cls-5 {
        stroke-width: 0px;
      }

      .cls-2 {
        fill: url(#_무제_그라디언트_35);
      }

      .cls-3 {
        fill: none;
      }

      .cls-6 {
        mask: url(#mask);
      }

      .cls-4 {
        fill: #231815;
      }

      .cls-5 {
        fill: #040000;
      }
    </style>
    <linearGradient id="_무제_그라디언트_35" data-name="무제 그라디언트 35" x1="11.79" y1="38.3" x2="131.5" y2="38.3" gradientUnits="userSpaceOnUse">
      <stop offset=".15" stop-color="#fff"/>
      <stop offset=".9" stop-color="#231815" stop-opacity="0"/>
    </linearGradient>
    <mask id="mask" x="11.79" y="12.24" width="120.6" height="46.38" maskUnits="userSpaceOnUse">
      <g>
        <rect class="cls-2" x="11.79" y="20.03" width="119.71" height="36.53"/>
        <path class="cls-1" d="M48.98,45.23c-.28.52-.91,1.15-2.31,1.15s-2.03-.62-2.31-1.15c-.96-1.8.61-4.99,1.26-5.99v-8.99c.29-.5.84-1.01,1.06-1.52.21.51.73,1.01,1.02,1.51v9c.64,1,2.25,4.19,1.29,6Z"/>
        <path class="cls-4" d="M75.3,31.91h-5.65v-9.63c0-2.27-.09-4.07-.28-5.4-.19-1.33-.5-2.33-.96-2.99-.45-.67-1.08-1.13-1.89-1.41l.15-.23h11.65l.15.23c-.81.27-1.44.74-1.89,1.41-.45.67-.78,1.66-.98,2.99-.2,1.33-.3,3.13-.3,5.4v9.63Z"/>
        <path class="cls-4" d="M90.24,58.39l-.15.23h-10.79l-.15-.23c.78-.27,1.4-.74,1.84-1.41.44-.67.75-1.66.93-2.99.18-1.33.27-3.13.27-5.4v-18.67c0-2.27-.09-4.07-.27-5.4-.18-1.33-.49-2.33-.93-2.99-.44-.67-1.05-1.13-1.84-1.41l.15-.23h10.79l.15.23c-.66.27-1.16.74-1.52,1.41-.36.67-.62,1.66-.78,2.99-.16,1.33-.24,3.13-.24,5.4v18.67c0,2.27.08,4.07.24,5.4.16,1.33.43,2.33.78,2.99.36.67.87,1.14,1.52,1.41Z"/>
      </g>
    </mask>
  </defs>
  <g class="cls-6">
    <g>
      <path class="cls-5" d="M22.53,51.57c-.4-.5-.69-1.26-.85-2.26-.16-1.01-.25-2.37-.25-4.08v-13.84c0-1.72.08-3.08.25-4.08.16-1.01.45-1.76.85-2.26.4-.5.96-.86,1.68-1.06l-.13-.18h-9.84l-.13.18c.6.21,1.06.56,1.39,1.06.33.5.57,1.26.72,2.26.15,1.01.22,2.37.22,4.08v13.84c0,1.72-.08,3.08-.22,4.08-.15,1.01-.39,1.76-.72,2.26-.33.5-.79.86-1.39,1.07l.13.18h9.84l.13-.18c-.72-.21-1.27-.56-1.68-1.07ZM18.79,51.81c.32-.6.54-1.37.69-2.36.16-1.05.23-2.48.23-4.23v-13.84c0-1.75-.08-3.17-.23-4.23-.15-.98-.37-1.76-.69-2.36h2.69c-.37.6-.63,1.37-.79,2.34-.17,1.07-.26,2.46-.26,4.24v13.84c0,1.79.08,3.18.26,4.24.16.97.42,1.74.79,2.34h-2.69Z"/>
      <rect class="cls-5" x="20.83" y="23.79" width="111.56" height=".5"/>
      <rect class="cls-5" x="20.83" y="38.05" width="111.56" height=".5"/>
      <rect class="cls-5" x="20.83" y="30.92" width="111.56" height=".5"/>
      <rect class="cls-5" x="20.83" y="45.18" width="111.56" height=".5"/>
      <rect class="cls-5" x="20.83" y="52.31" width="111.56" height=".5"/>
      <path class="cls-5" d="M24.37,43.53c-.46,0-.85-.17-1.17-.5-.32-.34-.48-.73-.48-1.17s.16-.85.48-1.17c.32-.32.71-.48,1.17-.48s.85.16,1.17.48.48.71.48,1.17-.16.83-.48,1.17c-.32.34-.71.5-1.17.5Z"/>
      <path class="cls-5" d="M24.37,36.4c-.46,0-.85-.17-1.17-.5-.32-.34-.48-.73-.48-1.17s.16-.85.48-1.17c.32-.32.71-.48,1.17-.48s.85.16,1.17.48.48.71.48,1.17-.16.83-.48,1.17c-.32.34-.71.5-1.17.5Z"/>
    </g>
  </g>
  <g>
    <polygon class="cls-3" points="118.05 29.27 112.83 43.74 123.25 43.74 118.05 29.27"/>
    <path class="cls-3" d="M47.32,31.05c-.25-.43-.46-.86-.65-1.29-.18.44-.4.87-.65,1.3v8.72c-.55.86-2.15,3.59-1.33,5.13.24.45.78.98,1.98.98s1.74-.53,1.98-.98c.83-1.54-.78-4.27-1.33-5.13v-8.73ZM47.5,44.3c-.1.2-.38.29-.83.29s-.73-.1-.83-.29c-.3-.56.22-1.93.83-3.06.61,1.13,1.13,2.5.83,3.06Z"/>
    <path class="cls-3" d="M68.53,13.27c.64.81,1.07,1.94,1.32,3.46.22,1.38.34,3.25.34,5.56v8.04h4.58v-8.04c0-2.32.12-4.19.37-5.57.27-1.51.71-2.64,1.35-3.44,0,0,.01-.01.02-.02h-7.98s.01.01.02.02Z"/>
    <path class="cls-3" d="M108.07,39.19v9.39c0,1.76.07,3.23.2,4.42.31-.74.64-1.56.98-2.48l4.22-11.33h-5.4Z"/>
    <path class="cls-1" d="M155.62,48.82c-.67,1.96-1.52,3.6-2.55,4.93-1.04,1.33-2.27,2.33-3.7,2.99-1.43.67-3.08,1-4.96,1h-3.64v-18.43h3.46c1.72,0,3.02.47,3.9,1.41.88.94,1.58,2.51,2.08,4.7l.29-.24v-12.62l-.29-.18c-.55,2.15-1.27,3.71-2.17,4.67-.9.96-2.17,1.44-3.82,1.44h-3.46v-17.79h3.11c2.9,0,5.24.71,7.04,2.11,1.8,1.41,3.27,3.5,4.4,6.28l.29-.18-1.76-9.04h-23.13l-.18.23c.94.27,1.67.74,2.2,1.41.53.67.9,1.66,1.12,2.99.21,1.33.32,3.13.32,5.4v18.67c0,1.78-.07,3.25-.2,4.45-.24-.56-.49-1.15-.74-1.81l-11.98-32.23h-.29l-7.22,19.37h-5.7v-8.45c0-2.27.11-4.07.32-5.4.21-1.33.59-2.33,1.12-2.99.53-.67,1.26-1.13,2.2-1.41l-.18-.23h-12.92l-.18.23c.78.27,1.39.74,1.82,1.41.43.67.74,1.66.94,2.99.2,1.33.29,3.13.29,5.4v8.45h-13.21v-8.45c0-2.27.1-4.07.29-5.4.1-.67.22-1.25.38-1.75s.34-.91.56-1.25c.43-.66,1.04-1.13,1.82-1.41l-.18-.23h-12.92l-.18.23c.7.21,1.29.52,1.77.95.16.14.3.3.44.46.13.17.25.35.37.56.11.21.22.44.31.69.19.5.33,1.08.44,1.75.21,1.33.32,3.13.32,5.4v18.67c0,2.27-.11,4.07-.32,5.4-.1.59-.23,1.1-.38,1.56-.2.58-.44,1.07-.73,1.44-.26.33-.58.62-.95.85s-.79.42-1.25.56h0l.18.23h12.92l.18-.23h0c-.59-.21-1.08-.52-1.46-.95-.13-.14-.25-.3-.36-.46-.18-.27-.33-.61-.46-.99-.12-.32-.22-.67-.31-1.07-.06-.29-.12-.6-.17-.94-.05-.33-.09-.69-.13-1.09-.07-.78-.12-1.68-.15-2.7-.01-.51-.02-1.05-.02-1.61v-9.39h13.21v9.39c0,2.27-.1,4.07-.29,5.4-.2,1.33-.51,2.33-.94,2.99-.43.67-1.04,1.14-1.82,1.41l.18.23h12.92l.18-.23c-1.33-.43-2.11-1.22-2.35-2.38-.23-1.15.06-2.85.88-5.08l2.3-6.37.3-.82,5.22-14.47,5.2,14.47.3.82,2.31,6.43c.82,2.39,1.12,4.11.91,5.17-.22,1.06-.93,1.8-2.14,2.23l.18.23h29.35l1.82-9.63-.35-.18ZM87.59,54.13c.22,1.49.57,2.6,1.09,3.39.02.03.04.07.07.1h-7.71s.01-.01.02-.02c.64-.81,1.07-1.94,1.32-3.46.22-1.38.34-3.25.34-5.56v-18.67c0-2.31-.11-4.18-.34-5.56-.25-1.52-.68-2.65-1.32-3.46,0,0-.01-.01-.02-.02h7.71s-.05.07-.07.1c-.51.8-.87,1.91-1.09,3.39-.2,1.39-.3,3.2-.3,5.55v18.67c0,2.35.1,4.16.3,5.55ZM109.24,50.52c-.34.92-.67,1.75-.98,2.48-.13-1.19-.2-2.66-.2-4.42v-9.39h5.4l-4.22,11.33Z"/>
    <path class="cls-1" d="M79.29,12.24h-13.56l-.18.23c.94.27,1.67.74,2.2,1.41.53.67.9,1.66,1.12,2.99.21,1.33.32,3.13.32,5.4v25.07c0,2.97-.43,5.31-1.29,7.02-.86,1.7-2.33,3.04-4.4,4.02l.12.23c1.8-.16,3.43-.54,4.9-1.14,1.47-.61,2.75-1.42,3.85-2.44,1.09-1.02,1.94-2.21,2.52-3.58.59-1.37.88-2.91.88-4.64v-14.91h0v-9.63c0-2.27.12-4.07.35-5.4.24-1.33.62-2.33,1.15-2.99.53-.67,1.26-1.13,2.2-1.41l-.18-.23ZM76.48,13.27c-.64.8-1.08,1.93-1.35,3.44-.24,1.38-.37,3.26-.37,5.57v8.04h-4.58v-8.04c0-2.31-.11-4.18-.34-5.56-.25-1.52-.68-2.65-1.32-3.46,0,0-.01-.01-.02-.02h7.98s-.01.01-.02.02Z"/>
    <polygon class="cls-4" points="112.83 43.74 112.53 44.56 123.54 44.56 123.25 43.74 112.83 43.74"/>
    <path class="cls-1" d="M45.84,44.3c.1.2.38.29.83.29s.73-.1.83-.29c.3-.56-.22-1.93-.83-3.06-.61,1.13-1.13,2.5-.83,3.06Z"/>
    <path class="cls-1" d="M62.89,42.23s0,0,0,0c-.04-.18-.16-.35-.34-.44-.13-.06-12.25-6.19-14.77-12.75,4.13-.54,7.33-4.08,7.33-8.36,0-4.65-3.79-8.44-8.44-8.44s-8.44,3.79-8.44,8.44c0,4.28,3.2,7.82,7.34,8.36-2.53,6.56-14.64,12.68-14.77,12.74-.2.1-.33.29-.35.5,0,0,0,0,0,0,0,.03,0,.07,0,.1,0,0,0,.01,0,.02h0s0,0,0,0c.37,6.24,6.55,9.65,11.06,12.14,2.22,1.23,4.52,2.49,4.52,3.4,0,.36.29.65.65.65h0c.36,0,.65-.29.65-.65,0-.89,2.29-2.16,4.5-3.38,4.52-2.5,10.71-5.91,11.08-12.17,0,0,0-.01,0-.02,0-.06,0-.12-.02-.18ZM48.65,44.91c-.24.45-.78.98-1.98.98s-1.74-.53-1.98-.98c-.83-1.54.77-4.27,1.33-5.13v-8.72c.25-.43.47-.86.65-1.3.18.43.4.86.65,1.29v8.73c.55.86,2.15,3.59,1.33,5.13Z"/>
  </g>
</svg>